<svg viewBox="0 0 204.458 205.405" fill="none" xmlns="http://www.w3.org/2000/svg">
<path id="Highlight 24" d="M87.8797 88.3341C79.9823 88.3341 93.4482 -8.86084 59.7771 2.11391C27.7636 12.5484 72.5273 88.3341 65.0054 88.3341C57.4834 88.3341 4.91015 83.9703 1.4101 107.734C-2.49882 134.273 66.3721 119.418 68.424 122.822C70.4759 126.226 41.3829 166.534 59.7771 178.865C78.8332 191.641 103.166 144.377 107.335 144.377C111.505 144.377 133.055 221.805 150.57 200.42C164.805 183.041 130.872 144.377 137.6 144.377C144.328 144.377 194.521 148.305 202.452 122.822C212.145 91.6789 125.523 113.918 120.306 107.734C115.089 101.55 162.059 51.9092 137.6 38.7575C113.45 25.7718 95.7771 88.3341 87.8797 88.3341Z" stroke="#FC69FF" stroke-width="2.5" stroke-linecap="round"/>
</svg>
