<svg viewBox="0 0 65.6978 65.7004" fill="none" xmlns="http://www.w3.org/2000/svg">
<path id="Vector" d="M21.9019 32.8502C21.9019 26.8029 26.8029 21.8993 32.8502 21.8993C38.8975 21.8993 43.8011 26.8029 43.8011 32.8502C43.8011 38.8975 38.8975 43.8011 32.8502 43.8011C26.8029 43.8011 21.9019 38.8975 21.9019 32.8502M15.982 32.8502C15.982 42.1665 23.5339 49.7184 32.8502 49.7184C42.1665 49.7184 49.7184 42.1665 49.7184 32.8502C49.7184 23.5339 42.1665 15.982 32.8502 15.982C23.5339 15.982 15.9823 23.5334 15.9823 32.8502M46.4444 15.3132C46.4441 16.0928 46.675 16.8551 47.1079 17.5035C47.5408 18.152 48.1562 18.6575 48.8764 18.9561C49.5966 19.2548 50.3892 19.3331 51.1539 19.1813C51.9187 19.0295 52.6212 18.6544 53.1727 18.1033C53.7243 17.5522 54.1 16.85 54.2524 16.0854C54.4048 15.3207 54.327 14.5281 54.029 13.8077C53.7309 13.0872 53.2259 12.4714 52.5778 12.038C51.9297 11.6046 51.1677 11.3731 50.388 11.3727H50.3864C49.3414 11.3732 48.3392 11.7885 47.6001 12.5273C46.861 13.2661 46.4453 14.2681 46.4444 15.3132M19.5787 59.5897C16.376 59.4439 14.6352 58.9104 13.4783 58.4597C11.9446 57.8626 10.8503 57.1515 9.69974 56.0025C8.5492 54.8535 7.83701 53.7603 7.24255 52.2266C6.79158 51.0702 6.25809 49.3289 6.1125 46.1261C5.95324 42.6635 5.92144 41.6233 5.92144 32.8507C5.92144 24.0781 5.95587 23.0409 6.1125 19.5753C6.25836 16.3725 6.79579 14.6346 7.24255 13.4749C7.83963 11.9412 8.55077 10.8469 9.69974 9.69633C10.8487 8.54578 11.942 7.83359 13.4783 7.23913C14.6346 6.78816 16.376 6.25468 19.5787 6.10909C23.0414 5.94983 24.0816 5.91803 32.8502 5.91803C41.6188 5.91803 42.6601 5.95193 46.1256 6.10961C49.3284 6.25547 51.0663 6.7929 52.226 7.23966C53.7597 7.83412 54.854 8.54788 56.0046 9.69685C57.1551 10.8458 57.8647 11.9417 58.4618 13.4754C58.9127 14.6317 59.4462 16.3731 59.5918 19.5758C59.7511 23.0414 59.7829 24.0787 59.7829 32.8512C59.7829 41.6238 59.7511 42.6611 59.5918 46.1267C59.446 49.3294 58.9099 51.0702 58.4618 52.2271C57.8647 53.7608 57.1536 54.8551 56.0046 56.003C54.8556 57.1509 53.7597 57.8631 52.226 58.4602C51.0697 58.9112 49.3284 59.4447 46.1256 59.5903C42.6629 59.7495 41.6228 59.7813 32.8502 59.7813C24.0776 59.7813 23.0403 59.7495 19.5787 59.5903M19.3067 0.198941C15.8096 0.358199 13.42 0.91271 11.3331 1.72477C9.17309 2.56337 7.34215 3.68842 5.51384 5.51384C3.68553 7.33926 2.56337 9.17046 1.72477 11.3331C0.91271 13.4213 0.358199 15.8096 0.198941 19.3067C0.0370552 22.8093 0 23.9291 0 32.8502C0 41.7713 0.0370552 42.8911 0.198941 46.3937C0.358199 49.891 0.91271 52.2791 1.72477 54.3673C2.56337 56.5273 3.68579 58.3619 5.51384 60.1866C7.34189 62.0112 9.17046 63.1347 11.3331 63.9756C13.4239 64.7877 15.8096 65.3422 19.3067 65.5015C22.8112 65.6607 23.9291 65.7004 32.8502 65.7004C41.7713 65.7004 42.8911 65.6633 46.3937 65.5015C49.891 65.3422 52.2791 64.7877 54.3673 63.9756C56.5273 63.1347 58.3582 62.012 60.1866 60.1866C62.0149 58.3611 63.1347 56.5273 63.9756 54.3673C64.7877 52.2791 65.3448 49.8908 65.5015 46.3937C65.6607 42.8884 65.6978 41.7713 65.6978 32.8502C65.6978 23.9291 65.6607 22.8093 65.5015 19.3067C65.3422 15.8094 64.7877 13.42 63.9756 11.3331C63.1347 9.17309 62.012 7.34215 60.1866 5.51384C58.3611 3.68553 56.5273 2.56337 54.37 1.72477C52.2791 0.91271 49.8908 0.355571 46.3963 0.198941C42.8932 0.0388948 41.7739 0 32.8541 0C23.9344 0 22.8125 0.0370552 19.308 0.198941" fill="white"/>
</svg>
