<svg viewBox="0 0 49.1572 43.8872" fill="none" xmlns="http://www.w3.org/2000/svg">
<g id="Group">
<path id="Vector" d="M49.1572 22.3324C49.1572 19.3519 46.7382 16.9329 43.7577 16.9329C42.289 16.9329 40.9931 17.4944 40.0428 18.4447C36.3711 15.8098 31.274 14.0819 25.6585 13.866L28.1207 2.33259L36.1119 4.01724C36.1983 6.04746 37.883 7.68891 39.9564 7.68891C42.073 7.68891 43.8009 5.96107 43.8009 3.84446C43.8009 1.72785 42.073 0 39.9564 0C38.4445 0 37.1487 0.863922 36.5439 2.15981L27.6023 0.259179C27.3431 0.215983 27.084 0.259177 26.868 0.388766C26.652 0.518354 26.5224 0.734335 26.436 0.993512L23.7147 13.866C17.9696 14.0387 12.8292 15.7234 9.11438 18.4447C8.16406 17.5376 6.82498 16.9329 5.39951 16.9329C2.41898 16.9329 0 19.3519 0 22.3324C0 24.5354 1.29588 26.3928 3.19651 27.2567C3.11012 27.7751 3.06692 28.3366 3.06692 28.8982C3.06692 37.1919 12.6997 43.8872 24.6218 43.8872C36.5439 43.8872 46.1766 37.1919 46.1766 28.8982C46.1766 28.3366 46.1334 27.8183 46.047 27.2999C47.8181 26.436 49.1572 24.5354 49.1572 22.3324ZM12.2245 26.1768C12.2245 24.0602 13.9523 22.3324 16.069 22.3324C18.1856 22.3324 19.9134 24.0602 19.9134 26.1768C19.9134 28.2935 18.1856 30.0213 16.069 30.0213C13.9523 30.0213 12.2245 28.2935 12.2245 26.1768ZM33.693 36.3279C31.058 38.9629 26.0473 39.1357 24.5786 39.1357C23.1099 39.1357 18.056 38.9197 15.4642 36.3279C15.0754 35.9392 15.0754 35.2912 15.4642 34.9025C15.853 34.5137 16.5009 34.5137 16.8897 34.9025C18.5311 36.5439 22.0732 37.1487 24.6218 37.1487C27.1704 37.1487 30.6692 36.5439 32.3539 34.9025C32.7426 34.5137 33.3906 34.5137 33.7794 34.9025C34.0817 35.3344 34.0817 35.9392 33.693 36.3279ZM33.0018 30.0213C30.8852 30.0213 29.1574 28.2935 29.1574 26.1768C29.1574 24.0602 30.8852 22.3324 33.0018 22.3324C35.1184 22.3324 36.8463 24.0602 36.8463 26.1768C36.8463 28.2935 35.1184 30.0213 33.0018 30.0213Z" fill="white" fill-opacity="0.4"/>
</g>
</svg>
