<svg viewBox="0 0 47.5491 53.9508" fill="none" xmlns="http://www.w3.org/2000/svg">
<g id="Group">
<path id="Vector" d="M35.2395 19.476C38.7088 21.9648 42.9588 23.4292 47.5491 23.4292V14.5647C46.6804 14.5649 45.8139 14.474 44.964 14.2932V21.2709C40.3741 21.2709 36.1246 19.8065 32.6544 17.3179V35.4077C32.6544 44.4572 25.3444 51.7927 16.3277 51.7927C12.9633 51.7927 9.83629 50.7719 7.23866 49.0213C10.2034 52.0636 14.338 53.9508 18.9122 53.9508C27.9295 53.9508 35.2399 46.6153 35.2399 37.5655V19.476H35.2395V19.476ZM38.4285 10.5328C36.6555 8.58892 35.4914 6.07678 35.2395 3.29951V2.15935H32.7897C33.4064 5.68926 35.5096 8.70501 38.4285 10.5328ZM12.9418 42.077C11.9512 40.7736 11.4159 39.1791 11.4182 37.5395C11.4182 33.4007 14.7618 30.0448 18.8868 30.0448C19.6555 30.0446 20.4197 30.1627 21.1523 30.396V21.3334C20.2961 21.2157 19.4321 21.1657 18.5683 21.184V28.2379C17.8352 28.0046 17.0706 27.8861 16.3017 27.8869C12.1767 27.8869 8.83334 31.2424 8.83334 35.3818C8.83334 38.3087 10.5045 40.8426 12.9418 42.077Z" fill="#626262"/>
<path id="Vector_2" d="M32.6557 17.3177C36.1259 19.8063 40.3754 21.2707 44.9653 21.2707V14.2931C42.4032 13.7454 40.1351 12.4017 38.4298 10.5328C35.5108 8.70482 33.4077 5.68908 32.7911 2.15935H26.3563V37.5651C26.3417 41.6927 23.0039 45.0348 18.8877 45.0348C16.4622 45.0348 14.3073 43.8745 12.9425 42.0771C10.5055 40.8426 8.8343 38.3085 8.8343 35.382C8.8343 31.2429 12.1776 27.8871 16.3027 27.8871C17.093 27.8871 17.8547 28.0105 18.5693 28.2381V21.1842C9.71093 21.3679 2.58667 28.6317 2.58667 37.5653C2.58667 42.0248 4.36077 46.0676 7.24017 49.0215C9.8378 50.7719 12.9648 51.7929 16.3292 51.7929C25.3461 51.7929 32.6559 44.457 32.6559 35.4077V17.3177H32.6557Z" fill="#7B7A7A"/>
<path id="Vector_3" d="M44.9635 14.2916V12.405C42.6532 12.4085 40.3882 11.7591 38.4281 10.5312C40.1633 12.4377 42.4481 13.7523 44.9635 14.2916ZM32.7893 2.15794C32.7305 1.82059 32.6853 1.48103 32.654 1.14016V0H23.7692V35.4061C23.755 39.5331 20.4174 42.8753 16.3009 42.8753C15.0923 42.8753 13.9513 42.5874 12.9408 42.0758C14.3055 43.8731 16.4604 45.0332 18.886 45.0332C23.0018 45.0332 26.3401 41.6914 26.3545 37.5639V2.15794H32.7893ZM18.5679 21.1828V19.1743C17.8255 19.0724 17.077 19.0213 16.3276 19.0217C7.30995 19.0215 0 26.3574 0 35.4061C0 41.0791 2.87294 46.0788 7.23859 49.0197C4.3592 46.066 2.58509 42.0231 2.58509 37.5637C2.58509 28.6303 9.70917 21.3665 18.5679 21.1828Z" fill="#626262"/>
</g>
</svg>
