<svg viewBox="0 0 89.9545 62.9827" fill="none" xmlns="http://www.w3.org/2000/svg">
<g id="Group">
<path id="Vector" d="M88.1017 9.85494C87.0644 6.00188 84.0264 2.96389 80.1733 1.92653C73.1341 0 44.9771 0 44.9771 0C44.9771 0 16.8201 0 9.78085 1.85243C6.00188 2.8898 2.8898 6.00188 1.85243 9.85494C0 16.8942 0 31.4914 0 31.4914C0 31.4914 0 46.1626 1.85243 53.1278C2.8898 56.9808 5.92779 60.0188 9.78085 61.0562C16.8942 62.9827 44.9771 62.9827 44.9771 62.9827C44.9771 62.9827 73.1341 62.9827 80.1733 61.1303C84.0264 60.0929 87.0644 57.0549 88.1017 53.2019C89.9542 46.1626 89.9542 31.5655 89.9542 31.5655C89.9542 31.5655 90.0283 16.8942 88.1017 9.85494Z" fill="white" fill-opacity="0.4"/>
<path id="Vector_2" d="M36.0103 44.9766L59.4251 31.4909L36.0103 18.0052V44.9766Z" fill="#232222"/>
</g>
</svg>
