<svg viewBox="0 0 84 27.359" fill="none" xmlns="http://www.w3.org/2000/svg">
  <g>
    <path d="M4.20176 3.9581C4.22079 4.26547 4.24762 4.61223 4.27825 5.00802L5.3843 19.2999C5.50792 20.8973 5.56973 21.696 5.92783 22.2821C6.24281 22.7976 6.71291 23.2002 7.27076 23.4321C7.90494 23.6957 8.70364 23.6339 10.301 23.5103L21.2474 22.6632C22.283 22.583 22.9829 22.5289 23.5068 22.4031C23.3311 22.8156 23.06 23.1831 22.7132 23.474C22.187 23.9153 21.4064 24.0954 19.8453 24.4555L9.14711 26.9232C7.58593 27.2833 6.80534 27.4634 6.13897 27.2971C5.55281 27.1508 5.028 26.8228 4.63976 26.3599C4.19839 25.8337 4.01833 25.0531 3.65822 23.4919L0.436289 9.52407C0.0761764 7.96289 -0.10388 7.1823 0.0624005 6.51593C0.208665 5.92977 0.53674 5.40497 0.999606 5.01673C1.52581 4.57536 2.3064 4.3953 3.86758 4.03519L4.20176 3.9581Z" fill="#612BD3"/>
    <path d="M15.5126 12.0753C15.3117 12.2967 15.0549 12.4195 14.7419 12.4436C14.5253 12.4604 14.3475 12.4318 14.2086 12.3577C14.0687 12.2717 13.965 12.1829 13.8974 12.0912L13.508 7.05415C13.581 6.74581 13.7142 6.51151 13.9077 6.35126C14.1002 6.17897 14.3048 6.08445 14.5214 6.0677C14.6057 6.06119 14.7219 6.07642 14.87 6.1134C15.0302 6.14945 15.196 6.25771 15.3673 6.43819C15.5378 6.60663 15.692 6.87924 15.8301 7.25602C15.9803 7.63186 16.0809 8.15078 16.1321 8.81276C16.1637 9.22198 16.1658 9.63955 16.1381 10.0655C16.1216 10.4784 16.0602 10.8585 15.9539 11.2057C15.8596 11.5521 15.7125 11.8419 15.5126 12.0753Z" fill="white"/>
    <path fill-rule="evenodd" clip-rule="evenodd" d="M5.10433 4.36484C5.01995 3.27452 4.97776 2.72935 5.15772 2.29648C5.31602 1.91572 5.5908 1.59484 5.94267 1.37984C6.3427 1.13542 6.88787 1.09323 7.97819 1.00885L20.0767 0.0725472C21.167 -0.0118329 21.7122 -0.054023 22.1451 0.12594C22.5258 0.28424 22.8467 0.559018 23.0617 0.910893C23.3061 1.31092 23.3483 1.85609 23.4327 2.94641L24.6278 18.3889C24.7122 19.4792 24.7544 20.0244 24.5744 20.4572C24.4161 20.838 24.1413 21.1589 23.7895 21.3739C23.3894 21.6183 22.8443 21.6605 21.7539 21.7449L9.65536 22.6812C8.56509 22.7655 8.01991 22.8077 7.58705 22.6278C7.20628 22.4695 6.88541 22.1947 6.67041 21.8428C6.42599 21.4428 6.3838 20.8976 6.29942 19.8073L5.10433 4.36484ZM13.3977 5.62789L13.293 4.27384L10.6932 4.47484L11.7917 18.6833L14.3413 17.8324L14.0021 13.4453C14.1475 13.6035 14.3577 13.7386 14.6328 13.8506C14.9069 13.9504 15.2726 13.9827 15.73 13.9473C16.3679 13.898 16.8867 13.7187 17.2866 13.4093C17.6976 13.0869 18.0117 12.6873 18.2291 12.2104C18.4465 11.7335 18.581 11.2024 18.6327 10.6172C18.6963 10.0311 18.7058 9.44922 18.6611 8.87149C18.5988 8.06508 18.4615 7.38554 18.2493 6.83288C18.037 6.28021 17.7734 5.84655 17.4585 5.53187C17.1547 5.20423 16.8102 4.9766 16.425 4.84898C16.0518 4.72043 15.6606 4.67197 15.2514 4.70361C14.8061 4.73804 14.433 4.84559 14.1321 5.02625C13.8304 5.19487 13.5855 5.39542 13.3977 5.62789Z" fill="white"/>
  </g>
  <g transform="translate(31.3488 0.44048)">
    <path d="M3.5852 4.38192V6.24921C3.86737 5.95044 4.22423 5.70147 4.65578 5.50229C5.08734 5.28651 5.61018 5.17863 6.22431 5.17863C6.78865 5.17863 7.31979 5.28651 7.81773 5.50229C8.33227 5.71807 8.78043 6.06663 9.16218 6.54797C9.56054 7.01272 9.8759 7.63515 10.1083 8.41527C10.3407 9.19538 10.4568 10.1415 10.4568 11.2536C10.4568 12.0503 10.3821 12.847 10.2328 13.6437C10.1 14.4404 9.85931 15.1541 9.51074 15.7848C9.16218 16.4156 8.68914 16.9301 8.0916 17.3285C7.51067 17.7102 6.78035 17.9011 5.90064 17.9011C5.26991 17.9011 4.77197 17.8181 4.40681 17.6521C4.04165 17.4696 3.76778 17.2621 3.5852 17.0297V23.0797L0 23.976V4.38192H3.5852ZM4.70558 15.7351C5.13713 15.7351 5.50229 15.594 5.80106 15.3118C6.09982 15.013 6.3322 14.6313 6.49818 14.1665C6.68076 13.7018 6.80524 13.1872 6.87164 12.6229C6.95463 12.042 6.99612 11.4693 6.99612 10.905C6.99612 9.99209 6.91313 9.27007 6.74715 8.73893C6.59777 8.20779 6.41519 7.81773 6.19941 7.56876C5.98364 7.30319 5.76786 7.13721 5.55208 7.07082C5.35291 7.00442 5.19522 6.97123 5.07904 6.97123C4.78027 6.97123 4.4898 7.07912 4.20763 7.29489C3.92546 7.49407 3.71799 7.80114 3.5852 8.21609V15.1624C3.66819 15.2952 3.80098 15.428 3.98356 15.5608C4.16614 15.677 4.40681 15.7351 4.70558 15.7351Z" fill="white"/>
    <path d="M27.1074 4.5313C27.5224 6.12472 27.8876 7.42768 28.2029 8.44016C28.5183 9.43605 28.7839 10.2743 28.9996 10.9548C29.232 11.6353 29.4063 12.2328 29.5225 12.7474C29.6553 13.2619 29.7217 13.8346 29.7217 14.4653C30.0038 14.2827 30.2777 14.0918 30.5433 13.8927C30.8088 13.6769 31.0329 13.4777 31.2155 13.2951H32.2612C31.813 13.9757 31.34 14.54 30.842 14.9881C30.3441 15.4197 29.8627 15.8014 29.398 16.1334C29.0992 16.7807 28.6428 17.2372 28.0286 17.5028C27.4145 17.7683 26.7755 17.9011 26.1116 17.9011C25.3646 17.9011 24.7256 17.8015 24.1945 17.6023C23.6633 17.3866 23.2235 17.1044 22.8749 16.7558C22.543 16.3907 22.294 15.9757 22.128 15.511C21.962 15.0462 21.879 14.5566 21.879 14.042C21.879 13.4777 22.0118 13.0379 22.2774 12.7225C22.5596 12.3905 22.8832 12.2245 23.2484 12.2245C24.2609 12.2245 24.7671 12.6312 24.7671 13.4445C24.7671 13.7101 24.6758 13.9342 24.4932 14.1167C24.3107 14.2993 24.0783 14.3906 23.7961 14.3906C23.6633 14.3906 23.5222 14.374 23.3729 14.3408C23.2401 14.291 23.1322 14.1997 23.0492 14.0669C23.182 14.6479 23.3978 15.1043 23.6965 15.4363C24.0119 15.7683 24.4102 15.9342 24.8916 15.9342C25.3065 15.9342 25.6136 15.8346 25.8128 15.6355C26.012 15.4197 26.1116 15.0545 26.1116 14.54C26.1116 13.9922 26.0618 13.5026 25.9622 13.0711C25.8792 12.6229 25.7464 12.1333 25.5638 11.6021C25.3812 11.071 25.1572 10.4402 24.8916 9.70992C24.626 8.96301 24.3273 8.00031 23.9953 6.82184C23.1654 8.59785 22.0699 9.73482 20.7089 10.2328C20.7089 10.3656 20.7089 10.4983 20.7089 10.6311C20.7255 10.7473 20.7338 10.8718 20.7338 11.0046C20.7338 11.9673 20.6508 12.8719 20.4848 13.7184C20.3188 14.5483 20.0366 15.2786 19.6383 15.9093C19.2565 16.5235 18.7586 17.0131 18.1444 17.3783C17.5303 17.7268 16.7751 17.9011 15.8788 17.9011C15.2647 17.9011 14.6754 17.8098 14.1111 17.6272C13.5634 17.4281 13.0737 17.1127 12.6422 16.6811C12.2106 16.233 11.862 15.6521 11.5965 14.9383C11.3475 14.208 11.223 13.32 11.223 12.2743C11.223 11.5606 11.2977 10.7971 11.4471 9.98379C11.5965 9.15389 11.8703 8.38207 12.2687 7.66835C12.6671 6.95463 13.2065 6.36539 13.887 5.90065C14.5841 5.4193 15.4721 5.17863 16.551 5.17863C17.6631 5.17863 18.5511 5.47739 19.215 6.07493C19.8955 6.67246 20.352 7.63515 20.5844 8.96301C21.1653 8.83022 21.6881 8.43186 22.1529 7.76794C22.6342 7.08741 23.0907 6.17452 23.5222 5.02924L27.1074 4.5313ZM16.5759 15.5608C16.9245 15.5608 17.2232 15.4446 17.4722 15.2122C17.7378 14.9632 17.9536 14.6313 18.1195 14.2163C18.2855 13.7848 18.4017 13.2785 18.4681 12.6976C18.5511 12.1167 18.5926 11.4859 18.5926 10.8054V10.4817C17.9287 10.3324 17.5967 9.84271 17.5967 9.0128C17.5967 8.48166 17.8125 8.1331 18.244 7.96712C18.0615 7.43598 17.8374 7.08741 17.5718 6.92143C17.3228 6.75545 17.1071 6.67246 16.9245 6.67246C16.5593 6.67246 16.244 6.84674 15.9784 7.1953C15.7294 7.52727 15.5219 7.95882 15.356 8.48996C15.19 9.0045 15.0655 9.57714 14.9825 10.2079C14.9161 10.8386 14.8829 11.4444 14.8829 12.0254C14.8829 12.7723 14.9327 13.3781 15.0323 13.8429C15.1485 14.3076 15.2896 14.6645 15.4555 14.9134C15.6215 15.1624 15.8041 15.3367 16.0033 15.4363C16.2025 15.5193 16.3933 15.5608 16.5759 15.5608Z" fill="white"/>
    <path d="M34.5122 1.36935V5.30311H36.031V6.299H34.5122V13.7682C34.5122 14.4653 34.6035 14.93 34.7861 15.1624C34.9853 15.3782 35.3255 15.4861 35.8069 15.4861C36.2882 15.4861 36.6866 15.2786 37.002 14.8637C37.3339 14.4487 37.5248 13.9259 37.5746 13.2951H38.6203C38.4875 14.3076 38.2551 15.1209 37.9232 15.7351C37.5912 16.3326 37.2177 16.7973 36.8028 17.1293C36.3878 17.4447 35.9646 17.6521 35.533 17.7517C35.1015 17.8513 34.7197 17.9011 34.3877 17.9011C33.1097 17.9011 32.2134 17.5526 31.6988 16.8554C31.1843 16.1417 30.927 15.2039 30.927 14.042V6.299H30.1303V5.30311H30.927V1.86729L34.5122 1.36935Z" fill="white"/>
    <path d="M37.2908 1.99178C37.2908 1.44404 37.4817 0.979293 37.8634 0.597535C38.2452 0.199178 38.7099 0 39.2577 0C39.8054 0 40.2702 0.199178 40.6519 0.597535C41.0503 0.979293 41.2495 1.44404 41.2495 1.99178C41.2495 2.53952 41.0503 3.00427 40.6519 3.38603C40.2702 3.76778 39.8054 3.95866 39.2577 3.95866C38.7099 3.95866 38.2452 3.76778 37.8634 3.38603C37.4817 3.00427 37.2908 2.53952 37.2908 1.99178ZM41.1499 5.30311V13.7682C41.1499 14.4653 41.2412 14.93 41.4237 15.1624C41.6229 15.3782 41.9632 15.4861 42.4445 15.4861C42.6603 15.4861 42.818 15.4695 42.9176 15.4363C43.0338 15.4031 43.1334 15.3699 43.2163 15.3367C43.2329 15.4197 43.2412 15.5027 43.2412 15.5857C43.2412 15.6687 43.2412 15.7517 43.2412 15.8346C43.2412 16.2496 43.1666 16.5899 43.0172 16.8554C42.8844 17.121 42.7018 17.3368 42.4694 17.5028C42.2537 17.6521 42.013 17.7517 41.7474 17.8015C41.4984 17.8679 41.2578 17.9011 41.0254 17.9011C39.7473 17.9011 38.851 17.5526 38.3365 16.8554C37.8219 16.1417 37.5647 15.2039 37.5647 14.042V5.30311H41.1499ZM50.6855 15.4861C50.4863 15.4695 50.337 15.4031 50.2374 15.2869C50.1378 15.1541 50.088 15.0047 50.088 14.8388C50.088 14.623 50.1793 14.4155 50.3619 14.2163C50.5444 14.0005 50.8432 13.8927 51.2582 13.8927C51.7229 13.8927 52.0715 14.0503 52.3038 14.3657C52.5362 14.6645 52.6524 15.0213 52.6524 15.4363C52.6524 15.7019 52.6026 15.9757 52.503 16.2579C52.4034 16.5235 52.2457 16.7724 52.03 17.0048C51.8142 17.2206 51.5486 17.4032 51.2333 17.5526C50.9179 17.6853 50.5527 17.7517 50.1378 17.7517H43.2661L48.146 6.64756H46.3036C45.9384 6.64756 45.6314 6.67246 45.3824 6.72225C45.15 6.75545 45.0338 6.84674 45.0338 6.99612C45.0338 7.06252 45.0504 7.09571 45.0836 7.09571C45.1334 7.09571 45.1832 7.11231 45.233 7.14551C45.2994 7.1787 45.3492 7.2451 45.3824 7.34469C45.4322 7.44427 45.4571 7.61855 45.4571 7.86753C45.4571 8.23269 45.3409 8.49826 45.1085 8.66424C44.8928 8.83022 44.6438 8.91321 44.3616 8.91321C44.0297 8.91321 43.706 8.80532 43.3906 8.58955C43.0919 8.35717 42.9425 8.00861 42.9425 7.54386C42.9425 7.29489 42.9923 7.04592 43.0919 6.79695C43.1915 6.53138 43.3408 6.2907 43.54 6.07493C43.7392 5.84255 43.9882 5.65997 44.2869 5.52719C44.5857 5.3778 44.9343 5.30311 45.3326 5.30311H52.1794L47.424 15.8346C47.5236 15.8346 47.6647 15.8429 47.8472 15.8595C48.0298 15.8761 48.2207 15.8927 48.4199 15.9093C48.6356 15.9259 48.8431 15.9425 49.0423 15.9591C49.2581 15.9757 49.449 15.984 49.6149 15.984C49.9137 15.984 50.1627 15.9508 50.3619 15.8844C50.5776 15.818 50.6855 15.6853 50.6855 15.4861Z" fill="white"/>
  </g>
</svg>
