<svg viewBox="0 0 24 24" fill="none" xmlns="http://www.w3.org/2000/svg">
<path d="M9.39524 19.3727L9.97968 20.6871C10.1534 21.0784 10.437 21.4108 10.7959 21.6442C11.1549 21.8775 11.5738 22.0016 12.0019 22.0016C12.43 22.0016 12.849 21.8775 13.2079 21.6442C13.5668 21.4108 13.8504 21.0784 14.0241 20.6871L14.6086 19.3727C14.8166 18.9063 15.1666 18.5174 15.6086 18.2616C16.0534 18.005 16.5679 17.8957 17.0786 17.9493L18.5086 18.1016C18.9342 18.1466 19.3638 18.0672 19.7453 17.8729C20.1267 17.6786 20.4436 17.3779 20.6575 17.0071C20.8716 16.6366 20.9737 16.2118 20.9512 15.7844C20.9287 15.357 20.7827 14.9454 20.5308 14.5993L19.6841 13.436C19.3826 13.0187 19.2216 12.5164 19.2241 12.0016C19.224 11.4882 19.3866 10.9879 19.6886 10.5727L20.5352 9.40934C20.7871 9.06332 20.9332 8.65163 20.9556 8.22424C20.9781 7.79684 20.8761 7.3721 20.6619 7.00156C20.448 6.6308 20.1311 6.33005 19.7497 6.13579C19.3683 5.94153 18.9387 5.86209 18.513 5.90712L17.083 6.05934C16.5723 6.11297 16.0578 6.00368 15.613 5.74712C15.1701 5.48981 14.8201 5.09892 14.613 4.63045L14.0241 3.31601C13.8504 2.92473 13.5668 2.59228 13.2079 2.35896C12.849 2.12565 12.43 2.00149 12.0019 2.00156C11.5738 2.00149 11.1549 2.12565 10.7959 2.35896C10.437 2.59228 10.1534 2.92473 9.97968 3.31601L9.39524 4.63045C9.18817 5.09892 8.83811 5.48981 8.39524 5.74712C7.95045 6.00368 7.43591 6.11297 6.92524 6.05934L5.49079 5.90712C5.06512 5.86209 4.63553 5.94153 4.25411 6.13579C3.87268 6.33005 3.55581 6.6308 3.3419 7.00156C3.12772 7.3721 3.02569 7.79684 3.04817 8.22424C3.07066 8.65163 3.2167 9.06332 3.46857 9.40934L4.31524 10.5727C4.61718 10.9879 4.77978 11.4882 4.77968 12.0016C4.77978 12.515 4.61718 13.0152 4.31524 13.4305L3.46857 14.5938C3.2167 14.9398 3.07066 15.3515 3.04817 15.7789C3.02569 16.2063 3.12772 16.631 3.3419 17.0016C3.55602 17.3721 3.87293 17.6727 4.2543 17.867C4.63567 18.0612 5.06515 18.1407 5.49079 18.096L6.92079 17.9438C7.43146 17.8902 7.94601 17.9994 8.39079 18.256C8.83532 18.5126 9.187 18.9036 9.39524 19.3727Z" stroke="#0E0E0E" stroke-width="1.5" stroke-linecap="round" stroke-linejoin="round"/>
<path d="M12.0001 15.0016C13.657 15.0016 15.0001 13.6584 15.0001 12.0016C15.0001 10.3447 13.657 9.00156 12.0001 9.00156C10.3433 9.00156 9.00012 10.3447 9.00012 12.0016C9.00012 13.6584 10.3433 15.0016 12.0001 15.0016Z" stroke="#0E0E0E" stroke-width="1.5" stroke-linecap="round" stroke-linejoin="round"/>
</svg>

