<svg viewBox="0 0 24 24" fill="none" xmlns="http://www.w3.org/2000/svg">
<path d="M22.2 22.2H3.61333C2.97861 22.2 2.66124 22.2 2.41881 22.0765C2.20556 21.9678 2.03218 21.7944 1.92353 21.5812C1.8 21.3388 1.8 21.0214 1.8 20.3867V1.8M22.2 6.33333L16.0411 12.4922C15.8167 12.7166 15.7045 12.8288 15.5751 12.8709C15.4613 12.9079 15.3387 12.9079 15.2249 12.8709C15.0955 12.8288 14.9833 12.7166 14.7589 12.4922L12.6411 10.3744C12.4167 10.15 12.3045 10.0378 12.1751 9.99579C12.0613 9.95881 11.9387 9.95881 11.8249 9.99579C11.6955 10.0378 11.5833 10.15 11.3589 10.3744L6.33333 15.4M22.2 6.33333H17.6667M22.2 6.33333V10.8667" stroke="#0E0E0E" stroke-width="1.5" stroke-linecap="round" stroke-linejoin="round"/>
</svg>

