<svg viewBox="0 0 13.2 14.5333" fill="none" xmlns="http://www.w3.org/2000/svg">
<path d="M12.6 5.93333H0.6M9.26667 0.6V3.26667M3.93333 0.6V3.26667M3.8 13.9333H9.4C10.5201 13.9333 11.0802 13.9333 11.508 13.7153C11.8843 13.5236 12.1903 13.2176 12.382 12.8413C12.6 12.4135 12.6 11.8534 12.6 10.7333V5.13333C12.6 4.01323 12.6 3.45318 12.382 3.02535C12.1903 2.64903 11.8843 2.34307 11.508 2.15132C11.0802 1.93333 10.5201 1.93333 9.4 1.93333H3.8C2.6799 1.93333 2.11984 1.93333 1.69202 2.15132C1.3157 2.34307 1.00973 2.64903 0.817987 3.02535C0.6 3.45318 0.6 4.01323 0.6 5.13333V10.7333C0.6 11.8534 0.6 12.4135 0.817987 12.8413C1.00973 13.2176 1.3157 13.5236 1.69202 13.7153C2.11984 13.9333 2.6799 13.9333 3.8 13.9333Z" stroke="#A3A3A3" stroke-width="1.2" stroke-linecap="round" stroke-linejoin="round"/>
</svg>
