<svg viewBox="0 0 21.5 21.5" fill="none" xmlns="http://www.w3.org/2000/svg">
<path id="Icon" d="M1.82598 6.23282L6.11402 9.29565C6.33715 9.45503 6.44872 9.53471 6.56548 9.55308C6.66821 9.56923 6.77343 9.55295 6.86648 9.50649C6.97223 9.4537 7.05449 9.34402 7.21901 9.12466L8.12511 7.91652C8.17164 7.85448 8.1949 7.82347 8.22224 7.79671C8.24652 7.77295 8.27315 7.75173 8.30173 7.73338C8.33392 7.7127 8.36935 7.69696 8.4402 7.66546L12.3088 5.94609C12.4692 5.87482 12.5493 5.83918 12.6098 5.78352C12.6633 5.7343 12.7054 5.674 12.7332 5.60684C12.7646 5.53091 12.7704 5.44336 12.7821 5.26826L13.0654 1.0194M12.25 12.25L14.866 13.3711C15.1695 13.5012 15.3213 13.5663 15.4017 13.6743C15.4722 13.7691 15.5069 13.8858 15.4996 14.0037C15.4913 14.1381 15.3997 14.2755 15.2165 14.5502L13.9875 16.3938C13.9007 16.524 13.8572 16.5891 13.7999 16.6363C13.7491 16.678 13.6906 16.7093 13.6277 16.7284C13.5567 16.75 13.4784 16.75 13.3219 16.75H11.3266C11.1193 16.75 11.0156 16.75 10.9274 16.7153C10.8495 16.6847 10.7805 16.635 10.7268 16.5708C10.666 16.4981 10.6332 16.3997 10.5677 16.203L9.85479 14.0644C9.81611 13.9483 9.79678 13.8903 9.79169 13.8314C9.78717 13.7791 9.79092 13.7264 9.80278 13.6753C9.81616 13.6177 9.8435 13.563 9.89819 13.4536L10.4397 12.3706C10.5497 12.1505 10.6047 12.0405 10.6895 11.9722C10.7641 11.912 10.8546 11.8746 10.9499 11.8643C11.0581 11.8527 11.1748 11.8916 11.4082 11.9694L12.25 12.25ZM20.75 10.75C20.75 16.2728 16.2728 20.75 10.75 20.75C5.22715 20.75 0.75 16.2728 0.75 10.75C0.75 5.22715 5.22715 0.75 10.75 0.75C16.2728 0.75 20.75 5.22715 20.75 10.75Z" stroke="#FC69FF" stroke-width="1.5" stroke-linecap="round" stroke-linejoin="round"/>
</svg>
