<svg viewBox="0 0 9.33333 9.33333" fill="none" xmlns="http://www.w3.org/2000/svg">
<path d="M-0.000298488 1.24601C-0.000298488 0.9457 0.10481 0.697952 0.315017 0.502763C0.525224 0.307565 0.798503 0.20997 1.13484 0.20997C1.46517 0.20997 1.73243 0.30606 1.93664 0.498258C2.14685 0.696457 2.25195 0.954709 2.25195 1.27303C2.25195 1.56132 2.14985 1.80156 1.94565 1.99375C1.73544 2.19195 1.45916 2.29105 1.11682 2.29105H1.10781C0.777476 2.29105 0.510215 2.19195 0.306008 1.99375C0.101801 1.79556 -0.000298488 1.5463 -0.000298488 1.24601ZM0.116819 9.12889V3.11087H2.11682V9.12889H0.116819ZM3.22493 9.12889H5.22493V5.76853C5.22493 5.55831 5.24895 5.39615 5.297 5.28204C5.38108 5.07783 5.50871 4.90516 5.67988 4.76402C5.85105 4.62288 6.06577 4.55231 6.32403 4.55231C6.9967 4.55231 7.33304 5.00576 7.33304 5.91267V9.12889H9.33304V5.67844C9.33304 4.78955 9.12283 4.11538 8.7024 3.65592C8.28198 3.19646 7.72643 2.96673 7.03574 2.96673C6.26096 2.96673 5.65736 3.30006 5.22493 3.96673V3.98474H5.21592L5.22493 3.96673V3.11087H3.22493C3.23694 3.30306 3.24295 3.90065 3.24295 4.90366C3.24295 5.90666 3.23694 7.31507 3.22493 9.12889Z" fill="#FFFFFF"/>
</svg>
