<svg viewBox="0 0 10.5529 10.5533" fill="none" xmlns="http://www.w3.org/2000/svg">
<path d="M3.51806 5.27667C3.51806 4.3053 4.3053 3.51764 5.27667 3.51764C6.24804 3.51764 7.0357 4.3053 7.0357 5.27667C7.0357 6.24804 6.24804 7.0357 5.27667 7.0357C4.3053 7.0357 3.51806 6.24804 3.51806 5.27667M2.56716 5.27667C2.56716 6.77313 3.7802 7.98617 5.27667 7.98617C6.77313 7.98617 7.98617 6.77313 7.98617 5.27667C7.98617 3.7802 6.77313 2.56716 5.27667 2.56716C3.7802 2.56716 2.5672 3.78012 2.5672 5.27667M7.46028 2.45973C7.46023 2.58496 7.49732 2.7074 7.56685 2.81156C7.63639 2.91572 7.73525 2.99691 7.85093 3.04489C7.96661 3.09286 8.09392 3.10545 8.21676 3.08106C8.3396 3.05668 8.45245 2.99642 8.54104 2.9079C8.62963 2.81938 8.68998 2.70658 8.71446 2.58376C8.73894 2.46094 8.72645 2.33362 8.67857 2.2179C8.6307 2.10218 8.54958 2.00325 8.44548 1.93364C8.34137 1.86402 8.21897 1.82683 8.09373 1.82678H8.09348C7.92561 1.82686 7.76464 1.89356 7.64591 2.01224C7.52719 2.13092 7.46042 2.29186 7.46028 2.45973M3.14489 9.57179C2.63044 9.54836 2.35082 9.46267 2.165 9.39027C1.91864 9.29436 1.74286 9.18013 1.55805 8.99558C1.37324 8.81102 1.25884 8.63541 1.16336 8.38906C1.09092 8.20332 1.00523 7.92361 0.98184 7.40916C0.956259 6.85295 0.951151 6.68587 0.951151 5.27675C0.951151 3.86763 0.956681 3.70101 0.98184 3.14434C1.00527 2.62989 1.09159 2.35073 1.16336 2.16445C1.25927 1.91809 1.3735 1.74231 1.55805 1.5575C1.74261 1.37269 1.91822 1.2583 2.165 1.16281C2.35073 1.09037 2.63044 1.00468 3.14489 0.981291C3.7011 0.95571 3.86818 0.950602 5.27667 0.950602C6.68516 0.950602 6.85241 0.956048 7.40907 0.981376C7.92353 1.0048 8.20268 1.09113 8.38897 1.16289C8.63533 1.25838 8.8111 1.37303 8.99591 1.55759C9.18072 1.74214 9.2947 1.91817 9.39061 2.16453C9.46305 2.35027 9.54874 2.62998 9.57213 3.14443C9.59771 3.7011 9.60281 3.86771 9.60281 5.27684C9.60281 6.68596 9.59771 6.85258 9.57213 7.40924C9.5487 7.9237 9.46258 8.20332 9.39061 8.38914C9.2947 8.6355 9.18047 8.81127 8.99591 8.99566C8.81136 9.18005 8.63533 9.29445 8.38897 9.39036C8.20323 9.46279 7.92353 9.54849 7.40907 9.57187C6.85287 9.59746 6.68579 9.60256 5.27667 9.60256C3.86754 9.60256 3.70093 9.59746 3.14489 9.57187M3.1012 0.0319555C2.53947 0.0575368 2.15562 0.146607 1.82041 0.277046C1.47346 0.411749 1.17936 0.592464 0.885678 0.885678C0.592 1.17889 0.411749 1.47303 0.277046 1.82041C0.146607 2.15584 0.0575368 2.53947 0.0319555 3.1012C0.00595211 3.66382 0 3.84369 0 5.27667C0 6.70964 0.00595211 6.88951 0.0319555 7.45213C0.0575368 8.01391 0.146607 8.3975 0.277046 8.73293C0.411749 9.07988 0.592042 9.37457 0.885678 9.66766C1.17931 9.96074 1.47303 10.1412 1.82041 10.2763C2.15626 10.4067 2.53947 10.4958 3.1012 10.5214C3.66412 10.547 3.84369 10.5533 5.27667 10.5533C6.70964 10.5533 6.88951 10.5474 7.45213 10.5214C8.01391 10.4958 8.3975 10.4067 8.73293 10.2763C9.07988 10.1412 9.37398 9.96087 9.66765 9.66766C9.96133 9.37444 10.1412 9.07988 10.2763 8.73293C10.4067 8.3975 10.4962 8.01386 10.5214 7.45213C10.547 6.88909 10.5529 6.70964 10.5529 5.27667C10.5529 3.84369 10.547 3.66382 10.5214 3.1012C10.4958 2.53943 10.4067 2.15562 10.2763 1.82041C10.1412 1.47346 9.96087 1.17936 9.66765 0.885678C9.37444 0.592 9.07988 0.411749 8.73335 0.277046C8.3975 0.146607 8.01386 0.0571147 7.45255 0.0319555C6.88985 0.0062476 6.71006 0 5.2773 0C3.84454 0 3.66433 0.00595211 3.10141 0.0319555" fill="#FFFFFF"/>
</svg>
