<svg viewBox="0 0 18.1662 17.7365" fill="none" xmlns="http://www.w3.org/2000/svg">
<path id="Icon" d="M8.66641 1.98672H4.74974C3.34961 1.98672 2.64955 1.98672 2.11477 2.25921C1.64436 2.49889 1.26191 2.88134 1.02223 3.35175C0.749744 3.88653 0.749744 4.58659 0.749744 5.98672V12.9867C0.749744 14.3869 0.749744 15.0869 1.02223 15.6217C1.26191 16.0921 1.64436 16.4746 2.11477 16.7142C2.64955 16.9867 3.34961 16.9867 4.74974 16.9867H12.4164C13.1914 16.9867 13.5789 16.9867 13.8968 16.9015C14.7595 16.6704 15.4334 15.9965 15.6646 15.1338C15.7497 14.8159 15.7497 14.4284 15.7497 13.6534M6.99974 6.57006C6.99974 7.49053 6.25355 8.23672 5.33308 8.23672C4.4126 8.23672 3.66641 7.49053 3.66641 6.57006C3.66641 5.64958 4.4126 4.90339 5.33308 4.90339C6.25355 4.90339 6.99974 5.64958 6.99974 6.57006ZM10.7414 9.41851L3.69237 15.8268C3.29588 16.1872 3.09764 16.3674 3.0801 16.5235C3.0649 16.6589 3.11679 16.7931 3.21907 16.883C3.33706 16.9867 3.60498 16.9867 4.14082 16.9867H11.9631C13.1624 16.9867 13.762 16.9867 14.233 16.7852C14.8243 16.5323 15.2953 16.0613 15.5483 15.47C15.7497 14.999 15.7497 14.3993 15.7497 13.2C15.7497 12.7965 15.7497 12.5948 15.7056 12.4068C15.6502 12.1707 15.5439 11.9495 15.3941 11.7587C15.275 11.6069 15.1174 11.4808 14.8023 11.2288L12.4713 9.36394C12.1559 9.11165 11.9982 8.9855 11.8246 8.94098C11.6715 8.90174 11.5105 8.90682 11.3602 8.95563C11.1897 9.01101 11.0403 9.14685 10.7414 9.41851ZM14.4997 0.749744L13.9913 1.76663C13.8192 2.11079 13.7332 2.28286 13.6182 2.43198C13.5162 2.56429 13.3976 2.68292 13.2653 2.78491C13.1162 2.89985 12.9441 2.98589 12.6 3.15797L11.5831 3.66641L12.6 4.17486C12.9441 4.34693 13.1162 4.43297 13.2653 4.54791C13.3976 4.64991 13.5162 4.76853 13.6182 4.90084C13.7332 5.04996 13.8192 5.22203 13.9913 5.56619L14.4997 6.58308L15.0082 5.56619C15.1803 5.22203 15.2663 5.04996 15.3812 4.90084C15.4832 4.76853 15.6019 4.64991 15.7342 4.54791C15.8833 4.43297 16.0554 4.34693 16.3995 4.17486L17.4164 3.66641L16.3995 3.15797C16.0554 2.98589 15.8833 2.89985 15.7342 2.78491C15.6019 2.68292 15.4832 2.56429 15.3812 2.43198C15.2663 2.28286 15.1803 2.11079 15.0082 1.76663L14.4997 0.749744Z" stroke="#A3A3A3" stroke-width="1.49949" stroke-linecap="round" stroke-linejoin="round"/>
</svg>
