<svg viewBox="0 0 17.3333 17.3334" fill="none" xmlns="http://www.w3.org/2000/svg">
<path id="Icon" d="M8.66667 1.58333H4.75C3.34987 1.58333 2.6498 1.58333 2.11502 1.85582C1.64462 2.0955 1.26217 2.47795 1.02248 2.94836C0.750001 3.48314 0.750001 4.1832 0.750001 5.58333V12.5833C0.750001 13.9835 0.750001 14.6835 1.02248 15.2183C1.26217 15.6887 1.64462 16.0712 2.11502 16.3109C2.6498 16.5833 3.34987 16.5833 4.75 16.5833H12.4167C13.1916 16.5833 13.5791 16.5833 13.897 16.4981C14.7598 16.267 15.4336 15.5931 15.6648 14.7304C15.75 14.4125 15.75 14.025 15.75 13.25M14.0833 5.75V0.75M11.5833 3.25H16.5833M7 6.16667C7 7.08714 6.25381 7.83333 5.33333 7.83333C4.41286 7.83333 3.66667 7.08714 3.66667 6.16667C3.66667 5.24619 4.41286 4.5 5.33333 4.5C6.25381 4.5 7 5.24619 7 6.16667ZM10.7417 9.01512L3.69262 15.4234C3.29614 15.7838 3.09789 15.964 3.08036 16.1202C3.06516 16.2555 3.11705 16.3897 3.21932 16.4796C3.33732 16.5833 3.60523 16.5833 4.14107 16.5833H11.9633C13.1626 16.5833 13.7623 16.5833 14.2333 16.3819C14.8245 16.1289 15.2956 15.6579 15.5485 15.0666C15.75 14.5956 15.75 13.996 15.75 12.7967C15.75 12.3931 15.75 12.1914 15.7059 12.0035C15.6505 11.7673 15.5441 11.5461 15.3944 11.3553C15.2752 11.2035 15.1177 11.0775 14.8026 10.8254L12.4715 8.96055C12.1562 8.70826 11.9985 8.58211 11.8248 8.53759C11.6718 8.49835 11.5107 8.50343 11.3604 8.55224C11.19 8.60762 11.0405 8.74346 10.7417 9.01512Z" stroke="#A3A3A3" stroke-width="1.5" stroke-linecap="round" stroke-linejoin="round"/>
</svg>
