<svg viewBox="0 0 18.1735 17.6919" fill="none" xmlns="http://www.w3.org/2000/svg">
<path id="Icon" d="M8.4898 16.9421V1.79105M4.61977 16.9421V13.1544M4.61977 5.57882V1.79105M12.3598 16.9421V13.1544M9.77757 1.76629L4.46497 1.79105C3.16452 1.79105 2.51429 1.79105 2.01759 2.03876C1.58067 2.25665 1.22545 2.60432 1.00283 3.03195C0.749744 3.5181 0.749744 4.1545 0.749744 5.42731L0.749745 13.3059C0.749745 14.5787 0.749745 15.2151 1.00283 15.7012C1.22545 16.1289 1.58067 16.4765 2.01759 16.6944C2.51429 16.9421 3.16452 16.9421 4.46497 16.9421H12.5146C13.8151 16.9421 14.4653 16.9421 14.962 16.6944C15.3989 16.4765 15.7542 16.1289 15.9768 15.7012C16.2299 15.2151 16.2299 14.5787 16.2299 13.3059V8.75482M0.749745 5.57882L9.77757 5.56454M0.749745 13.1544H16.2299M14.4189 0.749744L13.8951 1.76629C13.7178 2.11032 13.6292 2.28234 13.5108 2.4314C13.4057 2.56367 13.2835 2.68225 13.1472 2.78421C12.9936 2.89912 12.8163 2.98512 12.4617 3.15714L11.4141 3.66541L12.4617 4.17368C12.8163 4.3457 12.9936 4.43171 13.1472 4.54661C13.2835 4.64857 13.4057 4.76715 13.5108 4.89942C13.6292 5.04849 13.7178 5.22051 13.8951 5.56454L14.4189 6.58108L14.9427 5.56454C15.12 5.22051 15.2087 5.04849 15.3271 4.89942C15.4321 4.76715 15.5543 4.64857 15.6907 4.54661C15.8443 4.43171 16.0216 4.3457 16.3761 4.17368L17.4237 3.66541L16.3761 3.15714C16.0216 2.98512 15.8443 2.89912 15.6907 2.78421C15.5543 2.68225 15.4321 2.56367 15.3271 2.4314C15.2087 2.28234 15.12 2.11032 14.9427 1.76629L14.4189 0.749744Z" stroke="#A3A3A3" stroke-width="1.49949" stroke-linecap="round" stroke-linejoin="round"/>
</svg>
