<svg viewBox="0 0 20.0029 20.0029" fill="none" xmlns="http://www.w3.org/2000/svg">
<g id="dotpoints-01">
<path id="Icon" d="M17.5028 10.0024L7.50134 10.0024M17.5028 5.00163L7.50134 5.00163M17.5028 15.0031L7.50134 15.0031M4.16752 10.0024C4.16752 10.4627 3.79437 10.8358 3.33407 10.8358C2.87376 10.8358 2.50061 10.4627 2.50061 10.0024C2.50061 9.54205 2.87376 9.1689 3.33407 9.1689C3.79437 9.1689 4.16752 9.54205 4.16752 10.0024ZM4.16752 5.00163C4.16752 5.46193 3.79437 5.83508 3.33407 5.83508C2.87376 5.83508 2.50061 5.46193 2.50061 5.00163C2.50061 4.54132 2.87376 4.16817 3.33407 4.16817C3.79437 4.16817 4.16752 4.54132 4.16752 5.00163ZM4.16752 15.0031C4.16752 15.4634 3.79437 15.8365 3.33407 15.8365C2.87376 15.8365 2.50061 15.4634 2.50061 15.0031C2.50061 14.5428 2.87376 14.1696 3.33407 14.1696C3.79437 14.1696 4.16752 14.5428 4.16752 15.0031Z" stroke="#A3A3A3" stroke-width="1.5" stroke-linecap="round" stroke-linejoin="round"/>
</g>
</svg>
