<svg viewBox="0 0 17.8683 17.3477" fill="none" xmlns="http://www.w3.org/2000/svg">
<path id="Icon" d="M7.98933 1.59793H4.74974C3.34961 1.59793 2.64955 1.59793 2.11477 1.87041C1.64436 2.1101 1.26191 2.49255 1.02223 2.96295C0.749744 3.49773 0.749744 4.1978 0.749744 5.59793V12.5979C0.749744 13.9981 0.749744 14.6981 1.02223 15.2329C1.26191 15.7033 1.64436 16.0858 2.11477 16.3254C2.64955 16.5979 3.34961 16.5979 4.74974 16.5979H12.4164C13.1914 16.5979 13.5789 16.5979 13.8968 16.5127C14.7595 16.2816 15.4334 15.6077 15.6646 14.745C15.7497 14.4271 15.7497 14.0396 15.7497 13.2646M6.99974 6.18126C6.99974 7.10174 6.25355 7.84793 5.33308 7.84793C4.4126 7.84793 3.66641 7.10174 3.66641 6.18126C3.66641 5.26079 4.4126 4.5146 5.33308 4.5146C6.25355 4.5146 6.99974 5.26079 6.99974 6.18126ZM10.7414 9.02972L3.69237 15.438C3.29588 15.7984 3.09764 15.9786 3.0801 16.1348C3.0649 16.2701 3.11679 16.4043 3.21907 16.4942C3.33706 16.5979 3.60498 16.5979 4.14082 16.5979H11.9631C13.1624 16.5979 13.762 16.5979 14.233 16.3964C14.8243 16.1435 15.2953 15.6725 15.5483 15.0812C15.7497 14.6102 15.7497 14.0106 15.7497 12.8112C15.7497 12.4077 15.7497 12.206 15.7056 12.0181C15.6502 11.7819 15.5439 11.5607 15.3941 11.3699C15.275 11.2181 15.1174 11.0921 14.8023 10.84L12.4713 8.97515C12.1559 8.72285 11.9982 8.59671 11.8246 8.55219C11.6715 8.51295 11.5105 8.51803 11.3602 8.56684C11.1897 8.62221 11.0403 8.75805 10.7414 9.02972ZM17.1186 7.22289L14.5341 6.48448C14.4103 6.44912 14.3485 6.43144 14.2907 6.40494C14.2395 6.38141 14.1908 6.35273 14.1453 6.31936C14.0941 6.28178 14.0486 6.23627 13.9576 6.14526L11.0769 3.2646C10.5015 2.68928 10.5015 1.75651 11.0769 1.1812C11.6522 0.605917 12.5849 0.605925 13.1602 1.18122L16.0409 4.06192C16.1319 4.15294 16.1774 4.19844 16.215 4.24964C16.2484 4.2951 16.2771 4.34382 16.3006 4.39507C16.3271 4.45279 16.3448 4.51467 16.3801 4.63843L17.1186 7.22289Z" stroke="#A3A3A3" stroke-width="1.49949" stroke-linecap="round" stroke-linejoin="round"/>
</svg>
