<svg viewBox="0 0 20.0029 20.0029" fill="none" xmlns="http://www.w3.org/2000/svg">
<g id="link-03">
<path id="Icon" d="M8.33447 10.8392C8.6924 11.3177 9.14905 11.7136 9.67346 12.0001C10.1979 12.2867 10.7777 12.457 11.3738 12.4997C11.9698 12.5424 12.5681 12.4564 13.128 12.2476C13.6878 12.0387 14.1963 11.7119 14.6187 11.2893L17.1191 8.7889C17.8782 8.00294 18.2982 6.95027 18.2887 5.85763C18.2792 4.76498 17.841 3.71978 17.0683 2.94713C16.2957 2.17448 15.2505 1.73621 14.1578 1.72672C13.0652 1.71723 12.0125 2.13726 11.2266 2.89637L9.79302 4.32158M11.6683 9.17228C11.3104 8.69377 10.8537 8.29784 10.3293 8.01133C9.8049 7.72483 9.22501 7.55445 8.62897 7.51176C8.03293 7.46908 7.43468 7.55508 6.8748 7.76393C6.31492 7.97278 5.8065 8.2996 5.38404 8.72222L2.88367 11.2226C2.12457 12.0085 1.70453 13.0612 1.71402 14.1539C1.72352 15.2465 2.16179 16.2917 2.93443 17.0644C3.70708 17.837 4.75229 18.2753 5.84493 18.2848C6.93758 18.2943 7.99024 17.8742 8.7762 17.1151L10.2014 15.6899" stroke="#A3A3A3" stroke-width="1.5" stroke-linecap="round" stroke-linejoin="round"/>
</g>
</svg>
