<svg preserveAspectRatio="none" width="100%" height="100%" overflow="visible" style="display: block;" viewBox="0 0 24 24" fill="none" xmlns="http://www.w3.org/2000/svg">
<g id="bell-02">
<path id="Icon" d="M13.9363 21H9.9363M17.9363 8C17.9363 6.4087 17.3042 4.88258 16.1789 3.75736C15.0537 2.63214 13.5276 2 11.9363 2C10.345 2 8.81888 2.63214 7.69366 3.75736C6.56844 4.88258 5.9363 6.4087 5.9363 8C5.9363 11.0902 5.15677 13.206 4.28596 14.6054C3.55143 15.7859 3.18416 16.3761 3.19762 16.5408C3.21253 16.7231 3.25116 16.7926 3.39807 16.9016C3.53076 17 4.12889 17 5.32515 17H18.5474C19.7437 17 20.3418 17 20.4745 16.9016C20.6214 16.7926 20.6601 16.7231 20.675 16.5408C20.6884 16.3761 20.3212 15.7859 19.5866 14.6054C18.7158 13.206 17.9363 11.0902 17.9363 8Z" stroke="#A3A3A3" stroke-width="1.5" stroke-linecap="round" stroke-linejoin="round"/>
</g>
</svg>
