<svg viewBox="0 0 24.7003 27.3595" fill="none" xmlns="http://www.w3.org/2000/svg">
<g id="Group 4">
<path id="Subtract" d="M4.20176 3.9581C4.22079 4.26547 4.24762 4.61223 4.27825 5.00802L5.3843 19.2999C5.50792 20.8973 5.56973 21.696 5.92783 22.2821C6.24281 22.7976 6.71291 23.2002 7.27076 23.4321C7.90494 23.6957 8.70364 23.6339 10.301 23.5103L21.2474 22.6632C22.283 22.583 22.9829 22.5289 23.5068 22.4031C23.3311 22.8156 23.06 23.1831 22.7132 23.474C22.187 23.9153 21.4064 24.0954 19.8453 24.4555L9.14711 26.9232C7.58593 27.2833 6.80534 27.4634 6.13897 27.2971C5.55281 27.1508 5.028 26.8228 4.63976 26.3599C4.19839 25.8337 4.01833 25.0531 3.65822 23.4919L0.436289 9.52407C0.0761764 7.96289 -0.10388 7.1823 0.0624005 6.51593C0.208665 5.92977 0.53674 5.40497 0.999606 5.01673C1.52581 4.57536 2.3064 4.3953 3.86758 4.03519L4.20176 3.9581Z" fill="#612BD3"/>
<g id="Subtract_2">
<path d="M15.5126 12.0753C15.3117 12.2967 15.0549 12.4195 14.7419 12.4436C14.5253 12.4604 14.3475 12.4318 14.2086 12.3577C14.0687 12.2717 13.965 12.1829 13.8974 12.0912L13.508 7.05415C13.581 6.74581 13.7142 6.51151 13.9077 6.35126C14.1002 6.17897 14.3048 6.08445 14.5214 6.0677C14.6057 6.06119 14.7219 6.07642 14.87 6.1134C15.0302 6.14945 15.196 6.25771 15.3673 6.43819C15.5378 6.60663 15.692 6.87924 15.8301 7.25602C15.9803 7.63186 16.0809 8.15078 16.1321 8.81276C16.1637 9.22198 16.1658 9.63955 16.1381 10.0655C16.1216 10.4784 16.0602 10.8585 15.9539 11.2057C15.8596 11.5521 15.7125 11.8419 15.5126 12.0753Z" fill="white"/>
<path fill-rule="evenodd" clip-rule="evenodd" d="M5.10433 4.36484C5.01995 3.27452 4.97776 2.72935 5.15772 2.29648C5.31602 1.91572 5.5908 1.59484 5.94267 1.37984C6.3427 1.13542 6.88787 1.09323 7.97819 1.00885L20.0767 0.0725472C21.167 -0.0118329 21.7122 -0.054023 22.1451 0.12594C22.5258 0.28424 22.8467 0.559018 23.0617 0.910893C23.3061 1.31092 23.3483 1.85609 23.4327 2.94641L24.6278 18.3889C24.7122 19.4792 24.7544 20.0244 24.5744 20.4572C24.4161 20.838 24.1413 21.1589 23.7895 21.3739C23.3894 21.6183 22.8443 21.6605 21.7539 21.7449L9.65536 22.6812C8.56509 22.7655 8.01991 22.8077 7.58705 22.6278C7.20628 22.4695 6.88541 22.1947 6.67041 21.8428C6.42599 21.4428 6.3838 20.8976 6.29942 19.8073L5.10433 4.36484ZM13.3977 5.62789L13.293 4.27384L10.6932 4.47484L11.7917 18.6833L14.3413 17.8324L14.0021 13.4453C14.1475 13.6035 14.3577 13.7386 14.6328 13.8506C14.9069 13.9504 15.2726 13.9827 15.73 13.9473C16.3679 13.898 16.8867 13.7187 17.2866 13.4093C17.6976 13.0869 18.0117 12.6873 18.2291 12.2104C18.4465 11.7335 18.581 11.2024 18.6327 10.6172C18.6963 10.0311 18.7058 9.44922 18.6611 8.87149C18.5988 8.06508 18.4615 7.38554 18.2493 6.83288C18.037 6.28021 17.7734 5.84655 17.4585 5.53187C17.1547 5.20423 16.8102 4.9766 16.425 4.84898C16.0518 4.72043 15.6606 4.67197 15.2514 4.70361C14.8061 4.73804 14.433 4.84559 14.1321 5.02625C13.8304 5.19487 13.5855 5.39542 13.3977 5.62789Z" fill="white"/>
</g>
</g>
</svg>
